<svg id="Layer_1" data-name="Layer 1" xmlns="http://www.w3.org/2000/svg" viewBox="0 0 869.69 145.03"><title>logo</title><path d="M312.45,282.81a31,31,0,0,1-.32,9.1,38.16,38.16,0,0,1-3.22,9.88,48.12,48.12,0,0,1-6.24,9.73,44.73,44.73,0,0,1-9.34,8.53q1.31,1.39,2.55,3a30.88,30.88,0,0,1,2.41,3.73c1.06,1.86,2.13,3.83,3.09,5.88s1.84,4,2.63,6,1.52,3.77,2.18,5.45,1.18,3.09,1.6,4.18a6,6,0,0,0,2.9,3.56,6.46,6.46,0,0,0,3.77.5,11,11,0,0,0,3.74-1.35,13.39,13.39,0,0,0,2.71-1.95q-.08.12-.69,1.92a22.47,22.47,0,0,1-1.87,4,17.13,17.13,0,0,1-3.25,4,8.1,8.1,0,0,1-4.95,2.06,9,9,0,0,1-3.79-.43,8.84,8.84,0,0,1-3.38-2.28,18.41,18.41,0,0,1-3.06-4.52,42.58,42.58,0,0,1-2.74-7.17c-1.13-3.85-2.2-7.59-3.26-11.11a29.71,29.71,0,0,0-4.64-9.36q-.49-.68-1-1.32a7,7,0,0,0-1-1.1c-2.58,1.33-8.21,2.57-8.9,3.59-.55.8.29,5.1.42,7.76s.22,5.26.28,7.8.06,4.95,0,7.22-.18,4.26-.39,5.91a11.37,11.37,0,0,1-1.49,4.49q-1.13,1.87-4.46,2.76a7,7,0,0,1-3.66.08,12.57,12.57,0,0,1-3.48-1.58l1-1.23a9.32,9.32,0,0,0,1.3-3,35.91,35.91,0,0,0,1-5.9,76.5,76.5,0,0,0,.26-9.88q-.14-2.49-.13-5.88t0-7.43c-3-.67-4.78-2.2-5.19-4.58a5.35,5.35,0,0,1,1.13-4.24,11.27,11.27,0,0,1,4.08-3.31q0-5.25.08-10.62t.14-10.08q.08-4.71.19-8.52t.19-6.05a46.43,46.43,0,0,0-3,3.51c-.87,1.1-1.82,2.34-2.82,3.71a41.75,41.75,0,0,0-2.68,4.19,6.16,6.16,0,0,1-1.66-.87c-.46-.35-.83-.67-1.12-.91a4.76,4.76,0,0,1-.94-1.06,6.14,6.14,0,0,1-1.49-2.69q-.42-1.56,1.63-3.82,1.11-1.2,3.42-3.53a44.32,44.32,0,0,1,6-4.88,65.56,65.56,0,0,1,8.7-5,57,57,0,0,1,11.61-4.09q6.55-1.6,11.17-.18a18.27,18.27,0,0,1,7.59,4.33,20.23,20.23,0,0,1,4.53,6.57A24.92,24.92,0,0,1,312.45,282.81Zm-34.37,39.5q1.16-.5,2.3-1t2.46-1.29a8.56,8.56,0,0,0-5-.73Q277.91,320.84,278.08,322.31Zm9.94-6a50.6,50.6,0,0,0,6-5.73,33.33,33.33,0,0,0,7.9-15.94,30.13,30.13,0,0,0,.18-10.13,19.9,19.9,0,0,0-2.56-7.77,12,12,0,0,0-4.42-4.31,12.8,12.8,0,0,0-5.47-1.54,19.06,19.06,0,0,0-5.58.52,20.19,20.19,0,0,0-4.86,1.91,33.49,33.49,0,0,0-4.48,2.94,2.13,2.13,0,0,1,.84.29q.28.23.64.59a3,3,0,0,1,.59.81q-.05,9.78.09,16.3c.09,4.34.18,7.9.22,10.63,0,3.2.12,5.78.25,7.7a6.13,6.13,0,0,0,0,.8q0,.39.07.89a27.73,27.73,0,0,1,5,.28A18,18,0,0,1,288,316.34Z" transform="translate(-255.88 -218.46)"/><path d="M363.71,303.36a78.92,78.92,0,0,1-5.19,9.59,65.11,65.11,0,0,1-6.6,8.77,47,47,0,0,1-7.62,6.89,22.61,22.61,0,0,1-8.2,3.81,13.41,13.41,0,0,1-5,.07,14,14,0,0,1-5.34-2,15.44,15.44,0,0,1-4.6-4.65,18.24,18.24,0,0,1-2.63-7.91,24.52,24.52,0,0,1,.66-8.83,37.47,37.47,0,0,1,3.55-9.18,30.33,30.33,0,0,1,5.88-7.63,16.09,16.09,0,0,1,7.6-4.18q3.89-.85,6,.6a5.66,5.66,0,0,1,2.49,4.16,13.22,13.22,0,0,1-.62,5.82,23,23,0,0,1-2.54,5.24,36.52,36.52,0,0,1-3.51,4.56c-1.28,1.41-2.49,2.73-3.64,3.9s-2.48,2.5-3.62,3.66-2.15,2.2-3,3.13a10.19,10.19,0,0,0,1.81,3.79,8.14,8.14,0,0,0,2.59,2.17,7.48,7.48,0,0,0,3.07.81,12.13,12.13,0,0,0,3.25-.27,15.16,15.16,0,0,0,6.66-3.61,51.67,51.67,0,0,0,6.22-6.53,84.86,84.86,0,0,0,5.38-7.47q2.43-3.8,4-6.51a2.79,2.79,0,0,1,1.29-1.21,1.55,1.55,0,0,1,1.26-.06,1.36,1.36,0,0,1,.69,1.06A3.55,3.55,0,0,1,363.71,303.36Zm-29.13-9.22a5.57,5.57,0,0,0-2.65,1.79,14.81,14.81,0,0,0-2.58,4,28.33,28.33,0,0,0-1.87,5.92,29.73,29.73,0,0,0-.52,7.58q1-1.13,2.22-2.36t2.39-2.59a28.69,28.69,0,0,0,4.85-6.88,9.58,9.58,0,0,0,1-4.52,3.78,3.78,0,0,0-1-2.53A2.09,2.09,0,0,0,334.58,294.14Z" transform="translate(-255.88 -218.46)"/><path d="M374,318.62a2.8,2.8,0,0,0,1.63.08,5.19,5.19,0,0,0,1.83-.76,7.51,7.51,0,0,0,1.6-1.41,4,4,0,0,0,.92-2,5.75,5.75,0,0,0-.59-3,27.73,27.73,0,0,0-2.08-4q-1.3-2.08-2.76-4.19c-1-1.4-1.82-2.74-2.55-3.88-.56-.87-1.1-1.74-1.55-2.48s-.8-1.29-1.17-1.91a12.11,12.11,0,0,0-.84-1.28q-.36.87-1.29,2.85t-2,4.14q-1.1,2.16-2.09,4t-1.38,2.52a3.11,3.11,0,0,1-1.36,1.33,1.47,1.47,0,0,1-1.32,0,1.73,1.73,0,0,1-.81-1.13,3.33,3.33,0,0,1,.35-2.12q.45-.89,1.32-2.81t1.73-3.94q.86-2,1.6-3.61a12.24,12.24,0,0,0,.78-1.9,2.79,2.79,0,0,0-1-1.9,3.43,3.43,0,0,1-.83-2.82,10.07,10.07,0,0,1,1.22-3.48,18.45,18.45,0,0,1,2.75-3.88,15.4,15.4,0,0,1,3.58-2.95,4.74,4.74,0,0,1,3.71-.67,7.93,7.93,0,0,1,2.48,1.26,2.06,2.06,0,0,1,1,1.75,9.82,9.82,0,0,1-.38,1.37,16,16,0,0,1-.87,2.11q-.61,1.26-1.81,3.28a26.31,26.31,0,0,0,1.65,3.86c.61,1.14,1.17,2.13,1.68,3a26.4,26.4,0,0,0,1.9,2.72q1.25,1.55,2.61,3.18t2.51,3.25a32.94,32.94,0,0,1,1.94,3.06,5.41,5.41,0,0,1,.79,2.53,12.14,12.14,0,0,1-1,4.27,26.88,26.88,0,0,1-2.76,5.15,22.83,22.83,0,0,1-4.19,4.64,12,12,0,0,1-5.45,2.67,7.6,7.6,0,0,1-4.3-.43,14,14,0,0,1-3.89-2.25,13.36,13.36,0,0,1-2.68-2.89,3,3,0,0,1-.66-2.46,17.1,17.1,0,0,1,.73-2,10.38,10.38,0,0,1,1.2-1.84c.23-.25.52-.55.87-.87a7.11,7.11,0,0,1,1.29-.86l2-1.1a44.8,44.8,0,0,0,2.74,4.28c.76,1,1.37,1.82,1.83,2.37A4.51,4.51,0,0,0,374,318.62Z" transform="translate(-255.88 -218.46)"/><path d="M429.78,286.91a1.75,1.75,0,0,1,1-.89,1.33,1.33,0,0,1,1.1,0,1.24,1.24,0,0,1,.61.89,3.73,3.73,0,0,1-.27,1.92,65.39,65.39,0,0,1-4.07,8.76,97,97,0,0,1-5.63,9.09,53.68,53.68,0,0,1-6,7.31q-3,3-5.31,3.4a11.32,11.32,0,0,1-5.74-.28,10.44,10.44,0,0,1-4-2.45,11.85,11.85,0,0,1-2.48-3.67,12.91,12.91,0,0,1-1-3.93c-.09-1-.22-2.92-.3-5.65s-.09-5.9,0-9.52.14-7.5.28-11.66.36-8.18.67-12.07l-3.45,1a30.61,30.61,0,0,1-3.17.77,27.1,27.1,0,0,1-6.38.43,26.37,26.37,0,0,1-4.65-.57q-.9-.23-.93-1a3.33,3.33,0,0,1,.35-1.56,5.21,5.21,0,0,1,1.06-1.49,2.62,2.62,0,0,1,1.3-.79q2-.17,4.31-.45a49.78,49.78,0,0,0,5-.86c1.3-.29,2.55-.62,3.73-1s2.35-.72,3.5-1.12q.54-4.85,1.25-8.5a20.2,20.2,0,0,1,1.52-5.17,2.59,2.59,0,0,1,1.27-1.06,13.23,13.23,0,0,1,2.27-.89,10.17,10.17,0,0,1,2.41-.41,2.57,2.57,0,0,1,1.8.44c.43.39.8,1.75,1.08,3.88a49.31,49.31,0,0,1,.21,8.28,60.15,60.15,0,0,1,7.82-.85q3.45-.12,5.93,0a31.43,31.43,0,0,1,4,.45q1.54.3,2.3.38a1,1,0,0,1,.93.84,3.46,3.46,0,0,1-1,3.23,2.6,2.6,0,0,1-1.81.68c-.67,0-1.5,0-2.39,0a28.19,28.19,0,0,0-3.19,0q-1.85.1-4.37.32t-5.84.77q-.62.1-1.39.28t-1.6.32q-.15,1.61-.26,3.16a27.13,27.13,0,0,1-.45,3.3c-.46,2.72-1,5.7-1.65,8.9-.57,2.8-1.28,6-2.11,9.68s-1.79,7.55-2.86,11.71a14.12,14.12,0,0,0,1.27,6.27,7.23,7.23,0,0,0,2.42,2.79,5.88,5.88,0,0,0,3.43.59,6.77,6.77,0,0,0,3.5-1.65,27.4,27.4,0,0,0,3.94-4q2-2.42,4-5.22t3.64-5.45q1.65-2.65,2.88-4.77T429.78,286.91Z" transform="translate(-255.88 -218.46)"/><path d="M476.82,285.39c-.79,1.38-1.8,3.18-3,5.28s-2.53,4.21-3.86,6.33-2.64,4.07-3.94,5.87a23.13,23.13,0,0,1-3.32,3.87,10.94,10.94,0,0,1-2.18,1.3,12.83,12.83,0,0,1-2.6.87,9.8,9.8,0,0,1-2.59.23,5.82,5.82,0,0,1-2.24-.51,4.94,4.94,0,0,1-1.8-1.71,16.35,16.35,0,0,1-1.38-2.66,15.33,15.33,0,0,1-1-4.29,21,21,0,0,1-4.46,6.75,24.25,24.25,0,0,1-5.07,3.9,20.66,20.66,0,0,1-5.84,2.21,6,6,0,0,1-3.16-.43,7.44,7.44,0,0,1-3.19-2.45,13.2,13.2,0,0,1-2.25-4.87,22.93,22.93,0,0,1-.42-7.6A35.49,35.49,0,0,1,427.28,286a42.72,42.72,0,0,1,5.5-9.33,30.19,30.19,0,0,1,6.51-6.3c2.23-1.53,4.22-2.42,5.76-2.45a11.47,11.47,0,0,1,4.77.88,4.57,4.57,0,0,1,2.32,2.57q.74,1.82-1,5.22,1.4-.5,2.36-.74t1.48-.31a2,2,0,0,1,.84,0,1.85,1.85,0,0,1,.22.81,14.94,14.94,0,0,1,0,2.32q-.07,1.69-.28,4.58t-.59,7.48q-.08.9-.13,1.65l-.09,1.49-.11,1.74c0,.66-.14,1.54-.16,2.49a9.39,9.39,0,0,0,.22,1.89,6.77,6.77,0,0,0,.63,1.83,3.08,3.08,0,0,0,1.16,1.26,2.94,2.94,0,0,0,1.95.26,5,5,0,0,0,2.46-1.58,29.92,29.92,0,0,0,3-3.58q1.56-2.14,3.23-4.69t3.12-4.91q1.45-2.36,2.61-4.19c.77-1.22,1.32-2.15,1.67-2.68a2.94,2.94,0,0,1,1.51-1.23,1.15,1.15,0,0,1,1.29.28,2.21,2.21,0,0,1,.38,1.72A7.65,7.65,0,0,1,476.82,285.39Zm-29.27,8.45q.22-2,.54-4.72t.48-5.21q.15-2.49.17-4.12c0-1.09-.11-1.57-.38-1.47a9.28,9.28,0,0,0-1.09.46,6.53,6.53,0,0,1-1.29.49,14.61,14.61,0,0,0-1.6.54,8.66,8.66,0,0,0,.59-2.71,5.41,5.41,0,0,0-.19-1.6,2.31,2.31,0,0,0-.57-1q-1.26-.7-3.75,2t-5.22,9.35a25,25,0,0,0-1.61,5.74,32.56,32.56,0,0,0-.42,5.55,18.12,18.12,0,0,0,.55,4.41,4.2,4.2,0,0,0,1.2,2.33,3.43,3.43,0,0,0,2.69.61,7.15,7.15,0,0,0,2.76-1.22,17.06,17.06,0,0,0,2.64-2.33,23.78,23.78,0,0,0,2.27-2.82,24.49,24.49,0,0,0,1.58-2.61A5.14,5.14,0,0,0,447.56,293.84Z" transform="translate(-255.88 -218.46)"/><path d="M485.3,305.47a14.76,14.76,0,0,1-6.41-.35,10.85,10.85,0,0,1-4.17-2.35,10.35,10.35,0,0,1-2.42-3.42,13.66,13.66,0,0,1-1-3.55,39.86,39.86,0,0,1-.32-6.21q.07-3.31.42-6.17t.65-4.87q.31-2,.45-2.52a18,18,0,0,1,1.77-5.21,7.57,7.57,0,0,1,3.81-3.4c.67-.22,1.4-.47,2.12-.67a14.44,14.44,0,0,1,1.9-.34,5.45,5.45,0,0,1,1.84.06q-2,7-3,11.7t-1.47,7.57A32.29,32.29,0,0,0,479,291c.06,2.93.6,5.11,1.67,6.48s3,1.88,5.66,1.54a8.26,8.26,0,0,0,4.83-2.52,21.43,21.43,0,0,0,3.87-5.44,16.65,16.65,0,0,1-.69-3.16,32.49,32.49,0,0,1-.17-6.13,55.08,55.08,0,0,1,.67-5.69,42.83,42.83,0,0,1,1.1-4.8q.63-2.14,1.12-3.38a6.84,6.84,0,0,1,1.73-3.1,8,8,0,0,1,2.93-1,9.17,9.17,0,0,1,1.39-.21,7.2,7.2,0,0,1,1,0q1.27.15,1.37,1,.17,1.55.32,4.68a31.31,31.31,0,0,1-.51,6.54c-.31,1.82-.56,3.45-.86,4.77s-.6,2.43-.91,3.35a12.61,12.61,0,0,1-1,2.28l-.95,1.63q.54,2.89,1,4.6a10.28,10.28,0,0,0,1.07,2.58,2.7,2.7,0,0,0,1.26,1.13,3.19,3.19,0,0,0,1.51.17,6.33,6.33,0,0,0,3.2-1.69,32.41,32.41,0,0,0,3.65-3.74q1.87-2.22,3.71-4.82t3.36-4.92q1.52-2.32,2.59-4l1.34-2.15a3,3,0,0,1,1.28-1.21,1.12,1.12,0,0,1,1.09,0,1.46,1.46,0,0,1,.57,1,2.84,2.84,0,0,1-.3,1.65,78.75,78.75,0,0,1-4.28,8.33,72.69,72.69,0,0,1-5.62,8.3,45.58,45.58,0,0,1-6.21,6.57,11.85,11.85,0,0,1-6.21,3.06,5.46,5.46,0,0,1-4.5-1.29,15.14,15.14,0,0,1-3.3-4.87,17.75,17.75,0,0,1-4.81,6A13.43,13.43,0,0,1,485.3,305.47Z" transform="translate(-255.88 -218.46)"/><path d="M517.19,299.67a3.53,3.53,0,0,1-1.42,1.58,2.11,2.11,0,0,1-1.51.26,1.38,1.38,0,0,1-1-.93,2.81,2.81,0,0,1,.19-2l1.08-2.77q.84-2.15,2-5.18t2.55-6.56q1.38-3.53,2.67-6.71t2.38-5.69q1.1-2.52,1.61-3.65-1.23-.86-1.69-1.25a3.9,3.9,0,0,1-.81-1.83,6.6,6.6,0,0,1,.29-3.37,19.24,19.24,0,0,1,1.78-4.15,16.61,16.61,0,0,1,2.69-3.55,5.18,5.18,0,0,1,3.1-1.67q2.92-.28,4.28,1.36a8.42,8.42,0,0,1,1.74,3.47,9.6,9.6,0,0,1,.09,3.23,9.11,9.11,0,0,1-1.23,3.64,7.87,7.87,0,0,0,.87.36,4.18,4.18,0,0,0,1.68.09,9.55,9.55,0,0,0,2.31-.41,8.33,8.33,0,0,1,2.1-.38,4.81,4.81,0,0,1,3,.57,6.79,6.79,0,0,1,2,1.88,10,10,0,0,1,1.31,2.53,18.34,18.34,0,0,1,.68,2.54,7.94,7.94,0,0,1-.9,5.17q-1.42,2.77-3.49,6.09a50.17,50.17,0,0,0-2.47,4.63,7.15,7.15,0,0,0-.82,4.49,5,5,0,0,0,.9,2q.58.73,2.91.52a7.74,7.74,0,0,0,3.7-1.55,29.18,29.18,0,0,0,4-3.48,60,60,0,0,0,4-4.54q2-2.46,3.63-4.8t2.82-4.19c.77-1.23,1.37-2.13,1.71-2.68a2.87,2.87,0,0,1,1.26-1.17,1.84,1.84,0,0,1,1.44-.11,1.47,1.47,0,0,1,.86,1.11,3.61,3.61,0,0,1-.6,2.39q-.54,1-1.87,3.27t-3.22,5q-1.89,2.79-4.21,5.77a53.19,53.19,0,0,1-4.92,5.5,33.77,33.77,0,0,1-5.25,4.22,11.58,11.58,0,0,1-5.18,1.93,8.83,8.83,0,0,1-4.44-.57,8.86,8.86,0,0,1-4.82-5.09,9.49,9.49,0,0,1-.66-3.13,8,8,0,0,1,.42-2.54q.43-1.37,1.07-2.85t1.37-3q.74-1.49,1.33-2.92,1.48-3,2.38-5.07a7.47,7.47,0,0,0,.77-3.45,3,3,0,0,0-.55-1.52,1.45,1.45,0,0,0-1.4-.56,5.36,5.36,0,0,0-.87.13,2.76,2.76,0,0,1-.51.1c-.17,0-.41.05-.72.12s-.77.12-1.39.18a5.91,5.91,0,0,1-2.3-.18,11.35,11.35,0,0,0-1.81-.42q-.35.72-1.57,3.1t-2.82,5.58l-3.35,6.72-3.29,6.57-2.59,5.18Q517.45,299.24,517.19,299.67Z" transform="translate(-255.88 -218.46)"/><path d="M614.37,273.23c-.91,1.31-2.06,3-3.46,5s-2.86,4-4.36,6-3,3.84-4.41,5.51a23.1,23.1,0,0,1-3.62,3.57,10.88,10.88,0,0,1-2.28,1.11,12.75,12.75,0,0,1-2.66.65,9.76,9.76,0,0,1-2.59,0,5.8,5.8,0,0,1-2.18-.7,4.93,4.93,0,0,1-1.65-1.85,16.37,16.37,0,0,1-1.15-2.76,15.37,15.37,0,0,1-.64-4.36,21,21,0,0,1-5,6.35A24.18,24.18,0,0,1,575,295.2a20.57,20.57,0,0,1-6,1.71,6,6,0,0,1-3.11-.69,7.44,7.44,0,0,1-3-2.71,13.22,13.22,0,0,1-1.83-5,23,23,0,0,1,.22-7.61,35.53,35.53,0,0,1,3.73-11.16,42.69,42.69,0,0,1,6.25-8.83,30.12,30.12,0,0,1,7-5.72c2.35-1.33,4.4-2.05,5.93-2a11.43,11.43,0,0,1,4.67,1.27,4.57,4.57,0,0,1,2.09,2.76q.58,1.87-1.41,5.12Q591,262,592,261.8t1.49-.19a2,2,0,0,1,.83,0,1.85,1.85,0,0,1,.15.82,15,15,0,0,1-.18,2.31q-.21,1.68-.67,4.54t-1.21,7.41q-.15.89-.26,1.63l-.22,1.48-.26,1.73c-.1.66-.27,1.52-.36,2.47a9.41,9.41,0,0,0,.06,1.9,6.79,6.79,0,0,0,.47,1.88,3.08,3.08,0,0,0,1.05,1.36,2.93,2.93,0,0,0,1.91.42,5,5,0,0,0,2.58-1.37,29.88,29.88,0,0,0,3.29-3.31q1.73-2,3.61-4.4t3.51-4.63q1.64-2.23,2.94-4c.87-1.15,1.5-2,1.89-2.53a2.93,2.93,0,0,1,1.6-1.1,1.14,1.14,0,0,1,1.26.38,2.22,2.22,0,0,1,.23,1.75A7.65,7.65,0,0,1,614.37,273.23Zm-29.81,6q.39-2,.94-4.66t.91-5.15q.36-2.47.52-4.09c.1-1.08,0-1.57-.25-1.5a9.25,9.25,0,0,0-1.12.36,6.51,6.51,0,0,1-1.32.38,14.55,14.55,0,0,0-1.63.4,8.67,8.67,0,0,0,.81-2.65,5.42,5.42,0,0,0-.05-1.61,2.31,2.31,0,0,0-.48-1q-1.2-.8-3.89,1.68t-6,8.88a25,25,0,0,0-2.08,5.58,32.63,32.63,0,0,0-.89,5.5,18.17,18.17,0,0,0,.17,4.44,4.21,4.21,0,0,0,1,2.42,3.41,3.41,0,0,0,2.62.84,7.12,7.12,0,0,0,2.85-1,17,17,0,0,0,2.82-2.1,23.76,23.76,0,0,0,2.49-2.61,24.48,24.48,0,0,0,1.79-2.47A5.15,5.15,0,0,0,584.56,279.18Z" transform="translate(-255.88 -218.46)"/><path d="M638.7,294.17a9,9,0,0,1-4-.7,7.38,7.38,0,0,1-2.77-2.1,7.27,7.27,0,0,1-1.44-3.12,9.73,9.73,0,0,1,.06-3.86c.18-.9.47-2.15.89-3.7s.86-3.22,1.31-5,.87-3.61,1.25-5.42a33.51,33.51,0,0,0,.71-4.91,9.85,9.85,0,0,0-.33-3.6,1.72,1.72,0,0,0-1.81-1.35,6.75,6.75,0,0,0-3.38,1.15,18.51,18.51,0,0,0-3.46,2.92,40.2,40.2,0,0,0-3.45,4.19,31.48,31.48,0,0,0-3.35,4.88,31.36,31.36,0,0,0-1.28,5.87q-.5,2.52-.87,4.54t-.71,3.55c-.23,1-.39,2-.58,2.91a3.78,3.78,0,0,1-1.74,2,16.5,16.5,0,0,1-3.17,1.67,9.6,9.6,0,0,1-3,.73c-.84,0-1.2-.24-1.11-.82.06-.38.22-1.28.52-2.67s.66-3,1.08-4.89.84-3.87,1.29-6,.89-4.13,1.25-6c.28-1.49.57-3.19.89-5,.27-1.57.61-3.42,1-5.52s.92-4.41,1.49-6.91a6.66,6.66,0,0,1,1.46-1,13.33,13.33,0,0,1,1.59-.61,8,8,0,0,1,1.75-.47,9.75,9.75,0,0,1,1.67,0,8.72,8.72,0,0,1,1.52.28,4.36,4.36,0,0,1,1.43.67q-.28.7-.65,1.93c-.24.83-.5,1.71-.72,2.62s-.53,2.14-.9,3.26a44.06,44.06,0,0,1,2.91-3.69,26.29,26.29,0,0,1,3.61-3.41,20.26,20.26,0,0,1,4.22-2.55,12.27,12.27,0,0,1,4.65-1.08,6.07,6.07,0,0,1,3.57,1,7.18,7.18,0,0,1,2.53,2.91,12.5,12.5,0,0,1,1.16,4.51,16.85,16.85,0,0,1-.61,5.78l-1,4.33q-.46,2.06-1.14,4.87c-.46,1.87-1.1,4-1.71,6.16a9.57,9.57,0,0,0-.34,3.72q.2,1.56,2,1.5t4.57-2.28a49.42,49.42,0,0,0,5.54-5.32q2.79-3.09,5.29-6.32t3.81-5.2a5.1,5.1,0,0,1,1.72-1.69,1.33,1.33,0,0,1,1.29-.12q.47.29.49,1.31a5.91,5.91,0,0,1-.78,2.6q-.7,1.38-2.15,3.65t-3.45,4.85q-2,2.58-4.28,5.22a48.07,48.07,0,0,1-4.78,4.8,30.55,30.55,0,0,1-4.94,3.55A10.17,10.17,0,0,1,638.7,294.17Z" transform="translate(-255.88 -218.46)"/><path d="M694,266.21a1.74,1.74,0,0,1,1.09-.73,1.32,1.32,0,0,1,1.08.15,1.24,1.24,0,0,1,.46,1,3.74,3.74,0,0,1-.57,1.85,65.43,65.43,0,0,1-5.41,8,96.94,96.94,0,0,1-7,8.07,53.57,53.57,0,0,1-7.09,6.24q-3.43,2.47-5.76,2.5a11.25,11.25,0,0,1-5.6-1.19,10.41,10.41,0,0,1-3.56-3.07,11.87,11.87,0,0,1-1.86-4,13,13,0,0,1-.38-4c.07-1,.25-2.92.61-5.63s.85-5.84,1.48-9.4,1.34-7.38,2.14-11.46,1.66-8,2.59-11.81l-3.55.45a30.38,30.38,0,0,1-3.24.25,26.88,26.88,0,0,1-6.34-.6,26.17,26.17,0,0,1-4.48-1.31,1,1,0,0,1-.76-1.1,3.34,3.34,0,0,1,.59-1.48,5.2,5.2,0,0,1,1.28-1.3,2.6,2.6,0,0,1,1.4-.57q2,.15,4.31.25a49.37,49.37,0,0,0,5,0c1.32-.08,2.6-.21,3.83-.36s2.43-.33,3.62-.54q1.3-4.71,2.58-8.19a20.23,20.23,0,0,1,2.33-4.86,2.58,2.58,0,0,1,1.42-.84,13.15,13.15,0,0,1,2.38-.51,10.1,10.1,0,0,1,2.44,0,2.55,2.55,0,0,1,1.7.72c.36.46.5,1.85.44,4a49.47,49.47,0,0,1-1.11,8.21,59.78,59.78,0,0,1,7.83.41q3.42.44,5.83,1a31.27,31.27,0,0,1,3.88,1.09q1.47.54,2.2.74a1,1,0,0,1,.78,1,3.46,3.46,0,0,1-1.54,3,2.58,2.58,0,0,1-1.89.38c-.66-.1-1.48-.2-2.35-.4a28,28,0,0,0-3.14-.49q-1.83-.2-4.35-.39t-5.87-.18q-.63,0-1.41.06t-1.62.06q-.41,1.57-.76,3.08a27.18,27.18,0,0,1-1,3.18c-.88,2.61-1.9,5.46-3,8.52-1,2.68-2.22,5.75-3.63,9.22s-3,7.17-4.68,11.1a14.18,14.18,0,0,0,.25,6.39,7.24,7.24,0,0,0,1.93,3.15,5.84,5.84,0,0,0,3.28,1.13,6.73,6.73,0,0,0,3.71-1.07,27.31,27.31,0,0,0,4.51-3.31q2.33-2.07,4.73-4.52t4.45-4.8q2.05-2.35,3.6-4.25Z" transform="translate(-255.88 -218.46)"/><path d="M711.68,305q.41-.29,1.27-1a10.51,10.51,0,0,0,2.05-2.51,36.17,36.17,0,0,0,2.67-5.33,78.14,78.14,0,0,0,3.12-9.52q.88-3.21,2.3-8.16T726.25,268q1.72-5.63,3.52-11.59T733.28,245l3.09-9.74q1.38-4.36,2.19-6.78a37.78,37.78,0,0,0-4,2.53c-1.13.82-2.36,1.75-3.65,2.79s-2.54,2.14-3.76,3.28a8.34,8.34,0,0,1-2.05-2.39,7.71,7.71,0,0,1-.71-1.28,7.58,7.58,0,0,1-.57-3q0-1.56,2.7-3.17,1.39-.85,4.23-2.44a46.66,46.66,0,0,1,7-3.09,60.3,60.3,0,0,1,9.73-2.48,57,57,0,0,1,12.25-.71q6.69.27,10.66,2.92a17.85,17.85,0,0,1,5.95,6.26,20.1,20.1,0,0,1,2.41,7.56,25.7,25.7,0,0,1,0,6.84,32.77,32.77,0,0,1-4.35,11.22,41,41,0,0,1-9.13,10.56,50.81,50.81,0,0,1-13.65,8c-5.3,2.15-16.11,1.92-18,3.43-.78.62-1.23,5-1.84,7.57s-1.25,5.13-1.92,7.62-1.35,4.82-2,7a56.88,56.88,0,0,1-2.1,5.57,11.6,11.6,0,0,1-2.71,4q-1.64,1.48-5.16,1.42a6.77,6.77,0,0,1-3.35-.93A10.54,10.54,0,0,1,711.68,305Zm25.13-44c-.24,1-.53,2.38-.89,4s-.77,3.51-1.24,5.58a42.68,42.68,0,0,0,6.22-1.24,41,41,0,0,0,6.89-2.56,46,46,0,0,0,6.82-4,36.81,36.81,0,0,0,6.19-5.51,31.83,31.83,0,0,0,4.85-7.22,31,31,0,0,0,2.78-9.11,19.37,19.37,0,0,0-.2-8.17,12.66,12.66,0,0,0-3-5.41,12,12,0,0,0-4.74-3,18.8,18.8,0,0,0-5.47-1,19.68,19.68,0,0,0-5.21.49,38.24,38.24,0,0,0-5.14,1.59,2.11,2.11,0,0,1,.72.51,3.58,3.58,0,0,1,.9,1.69q-2.85,9.38-4.66,15.68c-1.21,4.2-2.15,7.64-2.87,10.27C737.95,256.63,737.25,259.15,736.81,261Z" transform="translate(-255.88 -218.46)"/><path d="M822.11,275.91a78.91,78.91,0,0,1-7.61,7.78,65,65,0,0,1-8.74,6.6,46.73,46.73,0,0,1-9.19,4.51,22.38,22.38,0,0,1-8.89,1.4,13.26,13.26,0,0,1-4.75-1.31,13.91,13.91,0,0,1-4.54-3.43,15.45,15.45,0,0,1-3.11-5.74,18.35,18.35,0,0,1-.34-8.33,24.62,24.62,0,0,1,3.06-8.3,37.47,37.47,0,0,1,5.92-7.84,30.19,30.19,0,0,1,7.72-5.71,15.94,15.94,0,0,1,8.42-1.91q4,.26,5.59,2.24a5.67,5.67,0,0,1,1.23,4.69,13.26,13.26,0,0,1-2.2,5.43,23,23,0,0,1-3.87,4.34,36.4,36.4,0,0,1-4.62,3.41c-1.61,1-3.13,1.93-4.55,2.74s-3.06,1.72-4.47,2.52-2.66,1.52-3.72,2.18a10.24,10.24,0,0,0,.68,4.15,8.14,8.14,0,0,0,1.88,2.8,7.42,7.42,0,0,0,2.71,1.63,12,12,0,0,0,3.18.64,15,15,0,0,0,7.36-1.63,51.43,51.43,0,0,0,7.74-4.55,84.69,84.69,0,0,0,7.21-5.69q3.37-3,5.61-5.15a2.78,2.78,0,0,1,1.56-.81,1.53,1.53,0,0,1,1.22.29,1.36,1.36,0,0,1,.37,1.21A3.56,3.56,0,0,1,822.11,275.91ZM796.79,259a5.52,5.52,0,0,0-3,1,14.77,14.77,0,0,0-3.57,3.16,28.37,28.37,0,0,0-3.42,5.18,29.86,29.86,0,0,0-2.58,7.14q1.28-.81,2.77-1.65t3-1.83a28.6,28.6,0,0,0,6.53-5.27,9.61,9.61,0,0,0,2.24-4.06,3.79,3.79,0,0,0-.24-2.71A2.08,2.08,0,0,0,796.79,259Z" transform="translate(-255.88 -218.46)"/><path d="M853,274.28a1.74,1.74,0,0,1,1.15-.62,1.32,1.32,0,0,1,1.06.25,1.24,1.24,0,0,1,.36,1,3.74,3.74,0,0,1-.75,1.79,65.44,65.44,0,0,1-6.16,7.44,97,97,0,0,1-7.74,7.36,53.62,53.62,0,0,1-7.66,5.53q-3.66,2.13-6,1.93a11.26,11.26,0,0,1-5.46-1.73,10.42,10.42,0,0,1-3.25-3.4,11.87,11.87,0,0,1-1.46-4.18,13,13,0,0,1,0-4.06c.17-1,.53-2.88,1.15-5.54s1.41-5.73,2.38-9.22,2-7.22,3.24-11.2,2.43-7.82,3.71-11.5l-3.58.1a30.42,30.42,0,0,1-3.25-.06,26.92,26.92,0,0,1-6.26-1.21,26.2,26.2,0,0,1-4.34-1.74,1,1,0,0,1-.65-1.17,3.34,3.34,0,0,1,.73-1.42,5.2,5.2,0,0,1,1.4-1.17,2.61,2.61,0,0,1,1.45-.43q2,.34,4.27.66a49.44,49.44,0,0,0,5,.44c1.32,0,2.61,0,3.85,0s2.45-.09,3.65-.19q1.75-4.56,3.36-7.9a20.22,20.22,0,0,1,2.79-4.61,2.58,2.58,0,0,1,1.5-.7,13.17,13.17,0,0,1,2.42-.28,10.12,10.12,0,0,1,2.43.22,2.56,2.56,0,0,1,1.62.88c.32.49.32,1.89.06,4a49.42,49.42,0,0,1-1.9,8.06,59.9,59.9,0,0,1,7.76,1.17q3.36.76,5.72,1.54a31.33,31.33,0,0,1,3.76,1.46q1.41.68,2.12,1a1,1,0,0,1,.68,1.05,3.46,3.46,0,0,1-1.82,2.86,2.59,2.59,0,0,1-1.92.2c-.65-.16-1.46-.34-2.31-.62a28.1,28.1,0,0,0-3.08-.8q-1.81-.37-4.29-.81t-5.83-.74q-.63-.06-1.41-.08t-1.62-.1q-.56,1.52-1.06,3a27.17,27.17,0,0,1-1.27,3.07c-1.13,2.51-2.42,5.25-3.86,8.19-1.26,2.57-2.77,5.51-4.5,8.83s-3.65,6.85-5.74,10.6a14.16,14.16,0,0,0-.37,6.39,7.24,7.24,0,0,0,1.62,3.32,5.85,5.85,0,0,0,3.15,1.44,6.74,6.74,0,0,0,3.8-.7,27.34,27.34,0,0,0,4.82-2.86q2.53-1.83,5.15-4t4.9-4.34q2.27-2.14,4-3.88Z" transform="translate(-255.88 -218.46)"/><path d="M840.68,297.42a3.53,3.53,0,0,1-1.7,1.26,2.11,2.11,0,0,1-1.53,0,1.38,1.38,0,0,1-.77-1.1,2.82,2.82,0,0,1,.58-1.91l1.61-2.5,3-4.68,3.8-5.92q2.06-3.19,3.94-6t3.46-5.11q1.57-2.25,2.3-3.25-1-1.08-1.41-1.56a3.9,3.9,0,0,1-.43-2,6.6,6.6,0,0,1,.95-3.24,19.23,19.23,0,0,1,2.57-3.72,16.6,16.6,0,0,1,3.34-2.95,5.18,5.18,0,0,1,3.37-1q2.91.3,3.92,2.18a8.42,8.42,0,0,1,1,3.74,9.59,9.59,0,0,1-.55,3.18,9.11,9.11,0,0,1-1.93,3.33,7.88,7.88,0,0,0,.78.53,4.18,4.18,0,0,0,1.63.42,9.56,9.56,0,0,0,2.34.06,8.34,8.34,0,0,1,2.14,0,4.81,4.81,0,0,1,2.8,1.15,6.79,6.79,0,0,1,1.62,2.25,10,10,0,0,1,.78,2.74,18.34,18.34,0,0,1,.17,2.62,7.93,7.93,0,0,1-1.91,4.89q-1.94,2.43-4.63,5.27a50.15,50.15,0,0,0-3.34,4.05,7.15,7.15,0,0,0-1.7,4.23,5,5,0,0,0,.49,2.12q.42.83,2.75,1.09a7.75,7.75,0,0,0,3.94-.79,29.21,29.21,0,0,0,4.62-2.61,60,60,0,0,0,4.81-3.66q2.41-2,4.51-4t3.6-3.54c1-1.06,1.77-1.82,2.21-2.28a2.87,2.87,0,0,1,1.47-.9,1.85,1.85,0,0,1,1.43.18,1.47,1.47,0,0,1,.62,1.26,3.6,3.6,0,0,1-1.06,2.23q-.74.89-2.48,2.84t-4.16,4.31q-2.41,2.36-5.28,4.82a53.25,53.25,0,0,1-5.92,4.41,33.81,33.81,0,0,1-6,3.1,11.59,11.59,0,0,1-5.46.86,8.84,8.84,0,0,1-4.24-1.44,8.86,8.86,0,0,1-3.72-5.94,9.49,9.49,0,0,1,0-3.19,8,8,0,0,1,.92-2.41q.7-1.25,1.61-2.58t1.93-2.64q1-1.31,1.88-2.6,2-2.63,3.34-4.5a7.47,7.47,0,0,0,1.44-3.23,3,3,0,0,0-.24-1.6,1.45,1.45,0,0,0-1.26-.83,5.37,5.37,0,0,0-.88,0,2.76,2.76,0,0,1-.52,0q-.26,0-.73,0t-1.39-.1a5.92,5.92,0,0,1-2.22-.63,11.35,11.35,0,0,0-1.69-.77q-.48.64-2.15,2.72t-3.87,4.91l-4.62,5.92L846,290.62l-3.56,4.57Q841,297.06,840.68,297.42Z" transform="translate(-255.88 -218.46)"/><path d="M918.61,291.4c-1.06.83-2.26,4.51-3.7,6.48a23.22,23.22,0,0,1-4.86,4.95,18.24,18.24,0,0,1-5.84,2.91,16.3,16.3,0,0,1-6.68.45,11.18,11.18,0,0,1-6.29-2.52,10.7,10.7,0,0,1-3-4.65,16.52,16.52,0,0,1-.74-5.7q.11-3,.43-5.65a20.42,20.42,0,0,1,1-4,34.94,34.94,0,0,1,1.84-4.4,30.72,30.72,0,0,1,2.68-4.39,22.69,22.69,0,0,1,3.57-3.88,7.94,7.94,0,0,1,2.28-2.67,11.3,11.3,0,0,1,3.26-1.7,16.74,16.74,0,0,1,3.83-.78,17.61,17.61,0,0,1,3.88.07,1.63,1.63,0,0,1,.56.17,3.74,3.74,0,0,0,.54.27,15.29,15.29,0,0,1,3.23,1.42,14.28,14.28,0,0,1,3.56,3.15,15,15,0,0,1,2.63,4.85,14.31,14.31,0,0,1,.43,6.62q-.11.78-.37,1.87t-.47,1.86q2.47-.54,5.21-1.43t5.35-1.93q2.61-1,4.88-2.19a38.08,38.08,0,0,0,3.68-2.11,3.62,3.62,0,0,1,1.89-.7,1,1,0,0,1,1,.54,1.76,1.76,0,0,1-.11,1.37,4.86,4.86,0,0,1-1.43,1.76,31.32,31.32,0,0,1-3,1.92q-2.36,1.42-5.53,3t-6.81,3C923,290.38,919.47,290.73,918.61,291.4Zm-24-.84a29.12,29.12,0,0,0-.23,3.47,10,10,0,0,0,.43,3.11,6,6,0,0,0,1.35,2.34,4.08,4.08,0,0,0,2.53,1.16,7,7,0,0,0,3.45-.39,10.8,10.8,0,0,0,3-1.77,16.26,16.26,0,0,0,2.58-2.71,26.81,26.81,0,0,0,2.15-3.31q-.73,0-1.39,0t-1.48-.15a10.69,10.69,0,0,1-6.38-3.06,14.68,14.68,0,0,1-3.63-6.13q-.87,2-1.52,3.84A18,18,0,0,0,894.57,290.56Zm8.73-16.21a5.52,5.52,0,0,0-.55,1.8,27.26,27.26,0,0,0-.22,3.27,7.67,7.67,0,0,0,.63,3.18,6.37,6.37,0,0,0,2.31,2.62,11.14,11.14,0,0,0,4.83,1.58q.51.07,1,.09t1,0l.87-2.2a9.57,9.57,0,0,0,.5-1.75,23.82,23.82,0,0,0,.52-3.77,15.59,15.59,0,0,0-.29-3.64,8.18,8.18,0,0,0-1.08-2.81,2.72,2.72,0,0,0-2-1.3,7.58,7.58,0,0,0-3.9.52A12.3,12.3,0,0,0,903.3,274.35Z" transform="translate(-255.88 -218.46)"/><path d="M951.54,326.26c-.59,1.48-1.32,3.35-2.19,5.58s-1.84,4.58-2.88,7-2.18,4.91-3.41,7.31a54.88,54.88,0,0,1-3.8,6.41,21.18,21.18,0,0,1-4,4.46,5.3,5.3,0,0,1-4.21,1.32,8.57,8.57,0,0,1-5.23-2.73,16.31,16.31,0,0,1-3.16-5.31,23.56,23.56,0,0,1-1.4-6.48,28.23,28.23,0,0,1,.15-6.2,25.25,25.25,0,0,1,1.64-6.32,14.44,14.44,0,0,1,3.16-4.52,33,33,0,0,1,5.48-4.21q3.39-2.15,8.7-5.28,2.61-1.57,5-3t4.53-2.53q.82-1.85,1.54-3.46t1.25-2.91a25,25,0,0,1-7.22,4.67,15.77,15.77,0,0,1-8.77,1,8.37,8.37,0,0,1-6.44-4.78q-2.12-4.12-1.05-11.36a28.5,28.5,0,0,1,2.64-8,34,34,0,0,1,5.4-8.08,25.76,25.76,0,0,1,7.63-5.85,14.77,14.77,0,0,1,9.2-1.41,7.15,7.15,0,0,1,3.75,1.69,10.16,10.16,0,0,1,2.34,3.11,13.42,13.42,0,0,1,1.19,3.66,25.87,25.87,0,0,1,.37,3.48,7.1,7.1,0,0,0,.51-1.15,4.83,4.83,0,0,1,.49-1.06,10.72,10.72,0,0,1,3.06-4.09,6.67,6.67,0,0,1,6.39.35c.6.43.87.78.83,1q-.7,1-1.1,1.49t-.82,1.1a12.06,12.06,0,0,0-.89,1.48q-.47.91-1.3,2.65-.32.64-1.3,3T965.17,294q-1.44,3.22-3.08,7.1t-3.2,7.58a55.24,55.24,0,0,0,6.49-2.76q3.41-1.69,6.55-3.52t5.64-3.52a30.66,30.66,0,0,0,3.76-2.85,5.07,5.07,0,0,1,2.13-1.3,3,3,0,0,1,1.84,0,1.07,1.07,0,0,1,.76,1,2.93,2.93,0,0,1-1,1.85,44.51,44.51,0,0,1-6.92,5.85q-3.93,2.72-7.91,4.95t-7.61,3.84c-2.43,1.07-5.4,1.83-6.17,2.58-1.3,1.27-2.11,5-2.87,6.75S952.1,324.84,951.54,326.26Zm-21.12,23q2,.3,3.64-2.35a66,66,0,0,0,3.83-7.36l1.37-3.2q.89-2.08,2.08-4.76t2.5-5.78q1.31-3.1,2.74-6.24l-1.88,1.13a21.14,21.14,0,0,0-2,1.41l-4.86,3.24a31,31,0,0,0-4.25,3.39,18.33,18.33,0,0,0-3.22,4.1,15.47,15.47,0,0,0-1.79,5.46,45.25,45.25,0,0,0-.54,5.25,14.13,14.13,0,0,0,.21,3.29,3.32,3.32,0,0,0,.84,1.76A2.51,2.51,0,0,0,930.42,349.3Zm11.53-44.07a8.08,8.08,0,0,0,4.16-.43,18.72,18.72,0,0,0,3.78-1.92,18.1,18.1,0,0,0,3-2.43,26.36,26.36,0,0,0,1.9-2.06c.37-.49.81-1.25,1.34-2.15a20.42,20.42,0,0,0,1.32-2.65,9.17,9.17,0,0,0,.65-2.37c.08-.71-.11-1.14-.57-1.28a1.34,1.34,0,0,1-.84-.93,6.51,6.51,0,0,1-.31-1.63,10.22,10.22,0,0,1,0-1.78q.09-.88.1-1.57a10.62,10.62,0,0,0-.94-5.2,3.57,3.57,0,0,0-2.52-2,7.58,7.58,0,0,0-5.19,1.15,19,19,0,0,0-4.88,4.33,28.1,28.1,0,0,0-3.84,6.23,25.67,25.67,0,0,0-2.07,6.75,15,15,0,0,0,.22,6.7Q938.11,304.64,941.94,305.24Z" transform="translate(-255.88 -218.46)"/><path d="M970.88,314.89a3.54,3.54,0,0,1-1.8,1.12,2.12,2.12,0,0,1-1.52-.17,1.38,1.38,0,0,1-.68-1.16,2.81,2.81,0,0,1,.74-1.85l1.81-2.36,3.37-4.42,4.28-5.59q2.31-3,4.43-5.71t3.87-4.81q1.75-2.11,2.56-3.06-1-1.17-1.28-1.67a3.9,3.9,0,0,1-.27-2,6.58,6.58,0,0,1,1.21-3.15,19.21,19.21,0,0,1,2.87-3.5,16.62,16.62,0,0,1,3.58-2.67,5.2,5.2,0,0,1,3.45-.75q2.89.54,3.75,2.5a8.4,8.4,0,0,1,.71,3.81,9.56,9.56,0,0,1-.81,3.13,9.1,9.1,0,0,1-2.19,3.16,7.91,7.91,0,0,0,.74.59,4.21,4.21,0,0,0,1.59.55,9.65,9.65,0,0,0,2.34.25,8.37,8.37,0,0,1,2.13.21,4.84,4.84,0,0,1,2.7,1.37,6.8,6.8,0,0,1,1.44,2.37,10,10,0,0,1,.56,2.8,18.28,18.28,0,0,1,0,2.63,7.91,7.91,0,0,1-2.31,4.72q-2.13,2.27-5.06,4.88a50.14,50.14,0,0,0-3.66,3.77,7.13,7.13,0,0,0-2,4.08,5,5,0,0,0,.32,2.15q.35.86,2.66,1.31a7.79,7.79,0,0,0,4-.46,29.3,29.3,0,0,0,4.83-2.23,60.18,60.18,0,0,0,5.11-3.26q2.57-1.82,4.83-3.6t3.88-3.24c1.08-1,1.92-1.67,2.39-2.1a2.88,2.88,0,0,1,1.54-.78,1.86,1.86,0,0,1,1.42.3,1.47,1.47,0,0,1,.52,1.31,3.6,3.6,0,0,1-1.24,2.13q-.81.83-2.71,2.63t-4.5,4q-2.6,2.16-5.67,4.37a53.36,53.36,0,0,1-6.27,3.92,33.93,33.93,0,0,1-6.24,2.6,11.65,11.65,0,0,1-5.53.42,8.88,8.88,0,0,1-4.12-1.78,8.86,8.86,0,0,1-3.24-6.23,9.47,9.47,0,0,1,.23-3.19,8,8,0,0,1,1.11-2.33q.8-1.19,1.82-2.44t2.14-2.48q1.12-1.23,2.09-2.44,2.25-2.45,3.7-4.21a7.45,7.45,0,0,0,1.7-3.1,3,3,0,0,0-.11-1.61,1.46,1.46,0,0,0-1.2-.93,5.4,5.4,0,0,0-.88-.12,2.78,2.78,0,0,1-.52,0q-.26,0-.72-.09t-1.39-.21a6,6,0,0,1-2.17-.81,11.4,11.4,0,0,0-1.63-.9q-.53.6-2.37,2.54t-4.26,4.57l-5.09,5.52-5,5.4-3.93,4.26Q971.24,314.56,970.88,314.89Z" transform="translate(-255.88 -218.46)"/><path d="M1072,316.51c-1.24,1-2.82,2.32-4.74,3.84s-3.88,3-5.88,4.54-3.94,2.86-5.79,4.07a23.21,23.21,0,0,1-4.49,2.43,11,11,0,0,1-2.51.43,12.89,12.89,0,0,1-2.75-.12,9.87,9.87,0,0,1-2.51-.71,5.85,5.85,0,0,1-1.91-1.28,4.94,4.94,0,0,1-1.08-2.24,16.31,16.31,0,0,1-.34-3,15.29,15.29,0,0,1,.59-4.37,21,21,0,0,1-6.59,4.71,24.35,24.35,0,0,1-6.14,1.83,20.75,20.75,0,0,1-6.26,0,6.06,6.06,0,0,1-2.81-1.53,7.45,7.45,0,0,1-2.11-3.43,13.18,13.18,0,0,1-.37-5.36,22.9,22.9,0,0,1,2.32-7.25,35.45,35.45,0,0,1,6.7-9.69,42.71,42.71,0,0,1,8.49-6.75,30.25,30.25,0,0,1,8.35-3.55c2.63-.63,4.82-.75,6.27-.23a11.53,11.53,0,0,1,4.16,2.52,4.57,4.57,0,0,1,1.26,3.23q0,2-2.78,4.53,1.49,0,2.48.16t1.5.24a2,2,0,0,1,.79.28,1.84,1.84,0,0,1-.08.83,14.9,14.9,0,0,1-.81,2.17q-.67,1.55-1.9,4.18t-3.23,6.78q-.4.81-.71,1.49l-.62,1.36-.73,1.59c-.28.61-.68,1.39-1,2.27a9.37,9.37,0,0,0-.47,1.85,6.75,6.75,0,0,0-.07,1.94,3.08,3.08,0,0,0,.64,1.59,3,3,0,0,0,1.73.94,5,5,0,0,0,2.87-.6,30,30,0,0,0,4.1-2.27q2.23-1.44,4.71-3.22t4.68-3.47q2.2-1.69,3.95-3c1.16-.86,2-1.54,2.53-1.91a3,3,0,0,1,1.85-.61,1.15,1.15,0,0,1,1.11.72,2.2,2.2,0,0,1-.26,1.75A7.64,7.64,0,0,1,1072,316.51Zm-30.47-2.58q.92-1.8,2.2-4.22T1046,305q1-2.27,1.64-3.79c.4-1,.45-1.51.18-1.51a9.33,9.33,0,0,0-1.18,0,6.57,6.57,0,0,1-1.38,0,14.7,14.7,0,0,0-1.69-.07,8.64,8.64,0,0,0,1.52-2.32,5.4,5.4,0,0,0,.4-1.56,2.3,2.3,0,0,0-.18-1.14q-.93-1.1-4.23.53t-8.23,6.87a25,25,0,0,0-3.55,4.79,32.5,32.5,0,0,0-2.38,5,18.08,18.08,0,0,0-1.07,4.32,4.2,4.2,0,0,0,.29,2.61,3.44,3.44,0,0,0,2.3,1.53,7.19,7.19,0,0,0,3-.15,17.12,17.12,0,0,0,3.31-1.24,23.84,23.84,0,0,0,3.13-1.82,24.51,24.51,0,0,0,2.41-1.87A5.14,5.14,0,0,0,1041.53,313.92Z" transform="translate(-255.88 -218.46)"/><path d="M1097,323.51l-2.38,5.34A40.72,40.72,0,0,0,1093,333a4.65,4.65,0,0,0,0,3.64,3.08,3.08,0,0,0,1.92,1.6,7,7,0,0,0,3.77-.44,42.13,42.13,0,0,0,5.19-2.18q2.81-1.38,5.73-3.13t5.44-3.35q2.52-1.6,4.31-2.83t2.42-1.57a2.41,2.41,0,0,1,1.43-.32,1.48,1.48,0,0,1,1,.48,1.23,1.23,0,0,1,.12,1.15,3.67,3.67,0,0,1-1.32,1.66q-1.69,1.46-4.24,3.35t-5.53,3.82q-3,1.93-6.16,3.71a55.36,55.36,0,0,1-6.21,3,35.37,35.37,0,0,1-5.66,1.81,9.83,9.83,0,0,1-4.51.1,5.13,5.13,0,0,1-2.43-1.43,9,9,0,0,1-1.73-2.55,9.76,9.76,0,0,1-.85-3.13,7.15,7.15,0,0,1,.31-3.14c.15-.41.47-1.16.87-2.2a44.27,44.27,0,0,1-10.17,5,16.09,16.09,0,0,1-8.74.65,8,8,0,0,1-2.83-1.38,7.54,7.54,0,0,1-2.32-2.86,12.51,12.51,0,0,1-1.11-4.47,17.07,17.07,0,0,1,.8-6.13,33,33,0,0,1,4.77-9.91,32.38,32.38,0,0,1,7.15-7.39,25,25,0,0,1,8.41-4.1,16.66,16.66,0,0,1,8.41-.19,6.47,6.47,0,0,1,3,1.59,8.53,8.53,0,0,1,1.91,2.7,12.84,12.84,0,0,1,1,3.22,16.75,16.75,0,0,1,.24,3.08q1.4-2.56,2.69-5.06c.86-1.66,1.68-3.26,2.5-4.7,1.22-2.15,2.63-4.53,4.08-7,1.26-2.15,2.76-4.63,4.43-7.43s3.49-5.72,5.47-8.77a9.55,9.55,0,0,1,2.26-.62,15.1,15.1,0,0,1,1.91-.11,7.22,7.22,0,0,1,1.83.18,7,7,0,0,1,1.8.73,2.5,2.5,0,0,1,1.07,1.6,8.08,8.08,0,0,1,0,3.18,37.66,37.66,0,0,1-1.44,5.38,44,44,0,0,1-4,8.64,88.22,88.22,0,0,1-6.3,9.19q-3.61,4.65-7.86,9.15A115,115,0,0,1,1097,323.51Zm-6.23-.27a18.73,18.73,0,0,0,1.66-3.41q.81-1.71,1.79-3.48l-.4.1-.4.1c-.82.13-1.32,0-1.5-.43a2.81,2.81,0,0,1,0-1.76q.14-.57.41-2.06a14.78,14.78,0,0,0,.2-3.17,8.46,8.46,0,0,0-.68-3.09,3.11,3.11,0,0,0-2.24-1.82,7.38,7.38,0,0,0-5.32,1.05,30,30,0,0,0-5.88,4.3,36,36,0,0,0-5.17,5.94,22.22,22.22,0,0,0-3.15,6.07c-.89,3-1,5.29-.37,6.84a4.54,4.54,0,0,0,3.31,2.91,7.88,7.88,0,0,0,4.26-.37,28.69,28.69,0,0,0,5-2.19q2.52-1.39,4.77-2.94A27,27,0,0,0,1090.81,323.24Z" transform="translate(-255.88 -218.46)"/></svg>
